<?xml version="1.0" encoding="UTF-8"?>
<svg id="_레이어_2" data-name="레이어 2" xmlns="http://www.w3.org/2000/svg" viewBox="0 0 98.16 148.93">
  <defs>
    <style>
      .cls-1 {
        fill: #003668;
      }

      .cls-1, .cls-2, .cls-3 {
        stroke-width: 0px;
      }

      .cls-2 {
        fill: #e6002d;
      }

      .cls-3 {
        fill: #595757;
      }
    </style>
  </defs>
  <g id="SVG">
    <g>
      <g>
        <path class="cls-1" d="m73.54,45.46c-8.28-5.62-18.87-3.33-24.43,5.13-4.64,7.06-11.66,7.94-14.37,7.94-8.85,0-14.91-6.22-16.7-12.66h0c-.01-.06-.03-.12-.05-.19-.01-.07-.04-.14-.05-.21-.71-2.69-.88-3.97-.88-6.83,0-15.41,15.8-32.56,38.57-32.56s36.65,17.75,40.08,27.61c-.06-.18-.11-.35-.17-.52C88.91,13.87,70.61,0,49.08,0,21.97,0,0,21.98,0,49.08c0,24.23,17.48,44.98,41.72,44.98,19.33,0,32.33-10.85,38.29-25.78,3.28-8.17.95-17.78-6.47-22.82Z"/>
        <path class="cls-2" d="m96,34.64c-2.87-9.62-16.3-28.56-40.39-28.56-22.76,0-38.57,17.15-38.57,32.56,0,2.85.17,4.14.88,6.83-.3-1.18-.45-2.36-.45-3.5,0-16.04,16.06-27.16,32.57-27.16,22.35,0,40.47,18.13,40.47,40.47,0,17.52-10.08,32.68-24.73,39.97h0c18.89-6.83,32.37-24.91,32.37-46.15,0-5.03-.67-9.46-2.16-14.44Z"/>
      </g>
      <g>
        <path class="cls-3" d="m28.16,138.24v9.83h-3.51v-6.77H6.08v-3.07h9.46v-4.15H4.31v-3.06h25.94v3.06h-11.23v4.15h9.14Zm0-17.88v8.41h-3.51v-5.31H6.4v-3.1h21.76Z"/>
        <path class="cls-3" d="m43.14,119.98l7.87,22.97-2.94,1.2-4.93-14.49-4.87,14.71-3-1.2,7.87-23.19Zm9.49-.16h3.26v28.03h-3.26v-14.58h-3.51v-3.16h3.51v-10.28Zm5.92-.03h3.39v28.22h-3.39v-28.22Z"/>
        <path class="cls-3" d="m68.92,125.07v-2.94h6.61v-2.68h3.73v2.68h6.3v2.94h-6.87l7.12,7.21-2.28,2.15-6.14-6.39-6.07,6.9-2.34-2.18,7.15-7.69h-7.21Zm22.52,16.93c0,.95-.19,1.84-.58,2.67-.39.83-.91,1.56-1.57,2.2-.66.64-1.43,1.14-2.32,1.51-.9.37-1.85.55-2.87.55s-1.94-.18-2.85-.55-1.69-.87-2.34-1.51c-.65-.63-1.17-1.37-1.56-2.2-.39-.83-.59-1.72-.59-2.67s.2-1.84.59-2.67c.39-.84.91-1.57,1.56-2.2.66-.63,1.43-1.13,2.34-1.5.91-.38,1.86-.56,2.85-.56s1.97.18,2.87.56c.89.37,1.67.87,2.32,1.5.65.63,1.18,1.37,1.57,2.2.39.83.58,1.72.58,2.67Zm-3.45-.03c0-1.06-.39-1.96-1.16-2.72-.77-.76-1.69-1.14-2.77-1.14s-1.96.38-2.72,1.14c-.76.76-1.14,1.66-1.14,2.72s.38,1.99,1.14,2.73c.76.75,1.67,1.12,2.72,1.12s2-.38,2.77-1.12c.77-.74,1.16-1.65,1.16-2.73Zm2.34-7.15v-5.38h-4.93v-3.01h4.93v-6.64h3.51v15.02h-3.51Z"/>
      </g>
    </g>
  </g>
</svg>