<?xml version="1.0" encoding="UTF-8"?>
<svg id="_레이어_2" data-name="레이어 2" xmlns="http://www.w3.org/2000/svg" viewBox="0 0 135.18 138.56">
  <defs>
    <style>
      .cls-1 {
        fill: #003668;
      }

      .cls-1, .cls-2, .cls-3 {
        stroke-width: 0px;
      }

      .cls-2 {
        fill: #58595b;
      }

      .cls-3 {
        fill: #e6002d;
      }
    </style>
  </defs>
  <g id="SVG">
    <g>
      <g>
        <path class="cls-1" d="m90.41,42.32c-7.71-5.24-17.57-3.1-22.76,4.77-4.31,6.58-10.84,7.4-13.36,7.4-8.25,0-13.88-5.8-15.55-11.8h0c-.02-.07-.03-.12-.05-.17-.02-.07-.03-.13-.05-.2-.66-2.51-.82-3.7-.82-6.36,0-14.34,14.72-30.3,35.9-30.3s34.12,16.52,37.33,25.7c-.06-.17-.12-.33-.17-.49C104.71,12.91,87.69,0,67.63,0,42.4,0,21.95,20.45,21.95,45.69c0,22.56,16.27,41.86,38.84,41.86,17.99,0,30.09-10.09,35.63-24,3.05-7.61.9-16.55-6.01-21.24Z"/>
        <path class="cls-3" d="m111.32,32.24c-2.68-8.96-15.18-26.59-37.61-26.59-21.18,0-35.9,15.97-35.9,30.3,0,2.66.17,3.85.82,6.36-.27-1.1-.42-2.19-.42-3.26,0-14.93,14.95-25.28,30.32-25.28,20.81,0,37.68,16.87,37.68,37.67,0,16.31-9.39,30.43-23.02,37.21h0c17.58-6.35,30.13-23.19,30.13-42.97,0-4.68-.63-8.81-2.01-13.45Z"/>
      </g>
      <g>
        <path class="cls-2" d="m13.42,134.25h-3.28v-18.4H0v-2.94h13.42v21.34Zm6.62-22.98h3.28v26.44h-3.28v-26.44Z"/>
        <path class="cls-2" d="m44.47,113.18v2.73h-3.13c.87,1.01,1.31,2.11,1.31,3.31,0,.75-.17,1.45-.5,2.11-.33.66-.78,1.24-1.35,1.75-.79.69-1.69,1.15-2.7,1.4v1.31h7.19v2.73h-17.58v-2.73h7.1v-1.27c-1.11-.3-2.03-.78-2.76-1.43-.57-.51-1.02-1.09-1.35-1.75-.33-.66-.5-1.36-.5-2.11,0-1.17.43-2.28,1.31-3.31h-3.25v-2.73h6.38v-2.61h3.55v2.61h6.28Zm6.19,17.09v7.5h-3.28v-4.8h-18.03v-2.7h21.31Zm-11.23-11.14c0-.79-.29-1.47-.88-2.05-.59-.58-1.3-.87-2.12-.87s-1.54.29-2.12.87c-.59.58-.88,1.26-.88,2.05s.29,1.47.88,2.05c.59.58,1.29.87,2.12.87s1.54-.29,2.12-.87c.59-.58.88-1.26.88-2.05Zm7.95-7.86h3.28v17.49h-3.28v-17.49Z"/>
        <path class="cls-2" d="m55.25,115.79v-2.88h12.93v2.88h-5.34l5.92,17.7-2.79.85-4.13-12.69-4.16,12.9-2.91-.88,5.98-17.88h-5.5Zm20.83-4.52h3.16v26.44h-3.16v-12.42h-3.04v12.27h-3.07v-26.26h3.07v10.96h3.04v-10.99Z"/>
        <path class="cls-2" d="m83.12,114.85v-2.82h15.18v2.82h-6.47l6.74,8.23-2.31,1.88-5.4-6.74-5.37,7.19-2.4-1.94,6.71-8.62h-6.68Zm21.01,17.24c0,.89-.18,1.73-.55,2.5-.36.78-.85,1.46-1.46,2.05-.63.59-1.36,1.05-2.2,1.4-.84.34-1.73.52-2.66.52s-1.82-.17-2.67-.52c-.85-.34-1.59-.81-2.22-1.4-.61-.59-1.09-1.27-1.46-2.05-.36-.78-.55-1.61-.55-2.5s.18-1.73.55-2.52c.36-.79.85-1.48,1.46-2.06.63-.59,1.37-1.05,2.22-1.4.85-.34,1.74-.52,2.67-.52s1.82.17,2.66.52c.84.34,1.57.81,2.2,1.4.61.59,1.09,1.27,1.46,2.06.36.79.55,1.63.55,2.52Zm-3.22-.03c0-.99-.36-1.85-1.09-2.57-.73-.72-1.59-1.08-2.58-1.08s-1.85.36-2.57,1.08c-.72.72-1.08,1.57-1.08,2.57s.36,1.84,1.08,2.55c.72.71,1.57,1.06,2.57,1.06s1.85-.35,2.58-1.06c.73-.71,1.09-1.56,1.09-2.55Zm2.19-6.77v-5.74h-4.92v-2.82h4.92v-5.46h3.28v14.03h-3.28Z"/>
        <path class="cls-2" d="m110.9,127.99h24.29v2.91h-10.5v6.8h-3.31v-6.8h-10.47v-2.91Zm5.19-12.93h13.9v-3.34h3.25v12.72h-20.4v-12.72h3.25v3.34Zm13.9,2.85h-13.9v3.64h13.9v-3.64Z"/>
      </g>
    </g>
  </g>
</svg>