<?xml version="1.0" encoding="UTF-8"?>
<svg id="_레이어_2" data-name="레이어 2" xmlns="http://www.w3.org/2000/svg" viewBox="0 0 207.96 154.14">
  <defs>
    <style>
      .cls-1 {
        fill: #003668;
      }

      .cls-1, .cls-2, .cls-3 {
        stroke-width: 0px;
      }

      .cls-2 {
        fill: #e6002d;
      }

      .cls-3 {
        fill: #575756;
      }
    </style>
  </defs>
  <g id="SVG">
    <g>
      <g>
        <path class="cls-1" d="m129.47,47.33c-8.62-5.86-19.65-3.47-25.44,5.34-4.84,7.36-12.14,8.27-14.97,8.27-9.21,0-15.52-6.48-17.39-13.19h0c-.02-.07-.03-.12-.05-.19-.02-.07-.04-.15-.06-.23-.73-2.8-.92-4.13-.92-7.11,0-16.04,16.46-33.9,40.16-33.9s38.16,18.48,41.74,28.75c-.06-.18-.12-.36-.18-.54C145.47,14.44,126.42,0,104,0c-28.22,0-51.11,22.88-51.11,51.11,0,25.23,18.2,46.83,43.44,46.83,20.13,0,33.66-11.29,39.87-26.84,3.41-8.51.99-18.51-6.74-23.76Z"/>
        <path class="cls-2" d="m152.86,36.07c-2.98-10.02-16.98-29.74-42.06-29.74-23.7,0-40.16,17.86-40.16,33.9,0,2.97.18,4.31.92,7.11-.31-1.22-.47-2.45-.47-3.65,0-16.7,16.73-28.28,33.92-28.28,23.28,0,42.14,18.87,42.14,42.14,0,18.25-10.5,34.04-25.75,41.62h0c19.67-7.11,33.71-25.94,33.71-48.06,0-5.24-.7-9.85-2.25-15.04Z"/>
      </g>
      <g>
        <path class="cls-3" d="m24.83,143.89v10.24h-3.66v-7.05H1.84v-3.19h9.85v-4.31H0v-3.19h27v3.19h-11.69v4.31h9.52Zm0-18.61v8.76h-3.66v-5.53H2.17v-3.23h22.66Z"/>
        <path class="cls-3" d="m31.84,140.63v-15.08h15.12v15.08h-15.12Zm.86,12.84v-9.81h3.62v6.59h20.45v3.23h-24.07Zm10.67-24.76h-7.9v8.79h7.9v-8.79Zm9.48,14.79v-18.8h3.66v18.8h-3.66Z"/>
        <path class="cls-3" d="m72.81,141.16v4.12h-3.62v-4.12h-8v-3.03h19.59v3.03h-7.97Zm1.05-4.54v-7.9h-10.87v-3.23h14.52v11.13h-3.65Zm-7.18,7.11v6.59h20.98v3.16h-24.63v-9.75h3.66Zm16.56-8.17h-4.28v-3h4.28v-7.87h3.62v20.91h-3.62v-10.04Z"/>
        <path class="cls-3" d="m107.27,132.53c0,1.01-.21,1.96-.63,2.85-.42.89-.98,1.65-1.68,2.29-.7.68-1.52,1.22-2.45,1.61-.93.4-1.94.59-3.01.59s-2.08-.2-3.01-.59c-.93-.39-1.75-.93-2.45-1.61-.7-.63-1.26-1.4-1.66-2.29-.41-.89-.61-1.84-.61-2.85s.2-1.99.61-2.88c.41-.89.96-1.66,1.66-2.32.7-.68,1.52-1.22,2.45-1.61.93-.4,1.94-.59,3.01-.59s2.08.2,3.01.59c.93.39,1.75.93,2.45,1.61.7.66,1.26,1.43,1.68,2.32.42.89.63,1.85.63,2.88Zm-13.57,9.71h23.48v11.56h-3.66v-8.3h-19.82v-3.26Zm10.01-9.71c0-1.16-.41-2.16-1.24-2.98-.82-.82-1.81-1.23-2.95-1.23s-2.13.41-2.96,1.23c-.84.82-1.25,1.82-1.25,2.98s.42,2.12,1.25,2.95c.83.82,1.82,1.23,2.96,1.23s2.12-.41,2.95-1.23c.82-.82,1.24-1.8,1.24-2.95Zm9.81-7.84h3.66v15.64h-3.66v-15.64Z"/>
        <path class="cls-3" d="m121.39,145.18v-3.23h19.66v3.23h-8.23v7.94h-3.59v-7.94h-7.84Zm17.42-12.51c0,1.01-.2,1.97-.61,2.87-.41.9-.97,1.68-1.7,2.34-.72.68-1.56,1.22-2.5,1.62-.94.39-1.95.59-3.03.59s-2.08-.2-3.03-.59c-.94-.4-1.78-.93-2.5-1.62-.72-.66-1.29-1.44-1.71-2.34-.42-.9-.63-1.85-.63-2.87s.21-1.96.63-2.87c.42-.9.99-1.69,1.71-2.37.72-.68,1.56-1.22,2.5-1.61.94-.39,1.95-.59,3.03-.59s2.09.2,3.03.59c.94.4,1.78.93,2.5,1.61.72.68,1.29,1.47,1.7,2.37.41.9.61,1.86.61,2.87Zm-3.49,0c0-1.19-.43-2.2-1.29-3.03-.86-.83-1.88-1.25-3.06-1.25s-2.2.42-3.05,1.25c-.84.83-1.27,1.84-1.27,3.03s.42,2.17,1.27,3.01c.85.85,1.86,1.27,3.05,1.27s2.21-.42,3.06-1.27c.86-.84,1.29-1.85,1.29-3.01Zm7.94-7.97h3.62v29.38h-3.62v-29.38Z"/>
        <path class="cls-3" d="m163.64,141.62v3.95h-3.62v-3.95h-8v-3.03h19.59v3.03h-7.97Zm-6.12,2.57v6.12h20.98v3.16h-24.63v-9.29h3.66Zm11.1-13.27c0,.9-.19,1.75-.58,2.55-.38.8-.89,1.51-1.53,2.12-.64.59-1.38,1.06-2.24,1.42-.86.35-1.77.53-2.73.53s-1.88-.18-2.73-.53c-.86-.35-1.61-.82-2.27-1.42-.62-.62-1.11-1.32-1.5-2.12-.38-.8-.58-1.65-.58-2.55s.19-1.75.58-2.54c.38-.79.88-1.49,1.5-2.11.66-.61,1.42-1.09,2.27-1.43.86-.34,1.77-.51,2.73-.51s1.88.17,2.73.51c.86.34,1.6.82,2.24,1.43.64.62,1.15,1.32,1.53,2.11.38.79.58,1.64.58,2.54Zm-3.46.03c0-.99-.35-1.83-1.05-2.52-.7-.69-1.56-1.04-2.57-1.04s-1.87.35-2.57,1.04c-.7.69-1.05,1.53-1.05,2.52s.35,1.83,1.05,2.52c.7.69,1.56,1.04,2.57,1.04s1.87-.35,2.57-1.04c.7-.69,1.05-1.53,1.05-2.52Zm8.92,5.07h-4.18v-3h4.18v-8.33h3.62v21.21h-3.62v-9.88Z"/>
        <path class="cls-3" d="m201.73,151.14h-19.26v-3.19h7.74v-3.66c-.35-.09-.68-.2-.99-.33-.88-.35-1.65-.82-2.3-1.42-.66-.62-1.17-1.32-1.55-2.12-.37-.8-.56-1.65-.56-2.55s.19-1.74.56-2.54c.37-.79.89-1.49,1.55-2.11.66-.62,1.42-1.09,2.29-1.43.87-.34,1.79-.51,2.78-.51s1.91.17,2.77.51c.86.34,1.6.82,2.24,1.43.66.62,1.18,1.32,1.56,2.11.38.79.58,1.64.58,2.54s-.19,1.75-.58,2.55c-.38.8-.91,1.51-1.56,2.12-.64.59-1.38,1.06-2.24,1.42-.35.15-.71.27-1.09.36v3.62h8.07v3.19Zm-11.79-23.51v-3.13h3.95v3.13h7.15v3.13h-18.24v-3.13h7.15Zm5.63,10.21c0-.96-.35-1.79-1.05-2.49-.7-.69-1.56-1.04-2.57-1.04s-1.87.35-2.57,1.04c-.7.69-1.05,1.52-1.05,2.49s.35,1.8,1.05,2.5c.7.7,1.56,1.05,2.57,1.05s1.87-.35,2.57-1.05,1.05-1.54,1.05-2.5Zm8.76-13.14h3.62v29.38h-3.62v-29.38Z"/>
      </g>
    </g>
  </g>
</svg>