<svg xmlns="http://www.w3.org/2000/svg" viewBox="0 0 157.8 178.64"><defs><style>.cls-1,.cls-2{fill:#fff;}.cls-2{opacity:0.5;}</style></defs><g id="레이어_2" data-name="레이어 2"><g id="Design"><polygon class="cls-1" points="142.57 0 124.82 35.72 95.25 35.8 142.57 0"/><polygon class="cls-2" points="142.59 0 124.85 35.72 142.6 59.34 142.59 0"/><polygon class="cls-1" points="142.57 59.34 124.82 95.05 95.25 95.14 142.57 59.34"/><polygon class="cls-2" points="142.59 59.34 124.85 95.05 142.6 118.67 142.59 59.34"/><polygon class="cls-1" points="95.11 35.8 77.36 71.52 47.79 71.6 95.11 35.8"/><polygon class="cls-2" points="95.13 35.8 77.39 71.52 95.14 95.14 95.13 35.8"/><polygon class="cls-1" points="47.77 71.6 30.02 107.32 0.45 107.4 47.77 71.6"/><polygon class="cls-2" points="47.8 71.6 30.05 107.32 47.8 130.94 47.8 71.6"/><polygon class="cls-1" points="95.09 95.14 77.35 130.85 47.77 130.94 95.09 95.14"/><polygon class="cls-2" points="95.12 95.14 77.37 130.85 95.13 154.47 95.12 95.14"/><polygon class="cls-1" points="142.55 118.67 124.81 154.39 95.23 154.47 142.55 118.67"/><polygon class="cls-2" points="142.58 118.67 124.83 154.39 142.58 178.01 142.58 118.67"/><path class="cls-1" d="M1.8,158.68A4.77,4.77,0,0,1,0,157.22l1.44-1.73a3.3,3.3,0,0,0,2.72,1.56c1.41,0,2.12-.84,2.12-2.52v-7.06H1.42v-2.13h7.4v9.06A4.93,4.93,0,0,1,7.65,158a4.6,4.6,0,0,1-3.44,1.2A5.69,5.69,0,0,1,1.8,158.68Z"/><path class="cls-1" d="M20.93,155.84H14.1L12.76,159H10.14l6.15-13.66h2.5L25,159H22.3Zm-.84-2-2.57-6-2.56,6Z"/><path class="cls-1" d="M6.79,172.79,4.62,175v3.49H2.09V164.85H4.62v7l6.75-7h2.85L8.49,171l6.08,7.55h-3Z"/><path class="cls-1" d="M17.46,178a4.9,4.9,0,0,1-2-1.9,5.7,5.7,0,0,1,0-5.51,4.88,4.88,0,0,1,2-1.89,5.86,5.86,0,0,1,2.85-.69,5.94,5.94,0,0,1,2.87.69,5,5,0,0,1,2,1.89,5.7,5.7,0,0,1,0,5.51,5,5,0,0,1-2,1.9,5.94,5.94,0,0,1-2.87.68A5.86,5.86,0,0,1,17.46,178Zm5.07-2.3a3.6,3.6,0,0,0,0-4.72,3.19,3.19,0,0,0-4.44,0,3.67,3.67,0,0,0,0,4.72,3.19,3.19,0,0,0,4.44,0Z"/><path class="cls-1" d="M34.24,168v2.33a3.07,3.07,0,0,0-.57-.06,2.9,2.9,0,0,0-2.22.83,3.27,3.27,0,0,0-.8,2.39v5H28.21V168.09h2.32v1.52A4.07,4.07,0,0,1,34.24,168Z"/><path class="cls-1" d="M46,174.08H37.79a2.76,2.76,0,0,0,1.12,1.82,3.67,3.67,0,0,0,2.25.68A3.8,3.8,0,0,0,44,175.45L45.3,177a4.43,4.43,0,0,1-1.78,1.27,6.57,6.57,0,0,1-2.42.42,6.37,6.37,0,0,1-3-.68,4.94,4.94,0,0,1-2-1.9,5.4,5.4,0,0,1-.71-2.76,5.47,5.47,0,0,1,.69-2.74,4.87,4.87,0,0,1,1.92-1.9,5.58,5.58,0,0,1,2.77-.69,5.47,5.47,0,0,1,2.73.68,4.85,4.85,0,0,1,1.87,1.89,5.71,5.71,0,0,1,.67,2.82C46,173.53,46,173.77,46,174.08Zm-7.21-3.46a2.9,2.9,0,0,0-1,1.84h5.91a2.84,2.84,0,0,0-1-1.83,2.89,2.89,0,0,0-2-.71A3,3,0,0,0,38.75,170.62Z"/><path class="cls-1" d="M55.55,169.08a4.25,4.25,0,0,1,1.22,3.32v6.11h-2.3v-1.27a2.82,2.82,0,0,1-1.28,1,5,5,0,0,1-2,.36,4.87,4.87,0,0,1-2-.4,3,3,0,0,1-1.35-1.11,2.95,2.95,0,0,1,.56-3.86,5.17,5.17,0,0,1,3.29-.85h2.69v-.15a2.15,2.15,0,0,0-.65-1.68,2.85,2.85,0,0,0-1.94-.59,5.4,5.4,0,0,0-1.73.28,4.06,4.06,0,0,0-1.43.76l-1-1.78a6,6,0,0,1,2-.95A8.46,8.46,0,0,1,52,168,5.06,5.06,0,0,1,55.55,169.08Zm-2.22,7.37a2.27,2.27,0,0,0,1-1.2V174H51.81c-1.4,0-2.1.46-2.1,1.39a1.24,1.24,0,0,0,.52,1,2.44,2.44,0,0,0,1.47.39A3.17,3.17,0,0,0,53.33,176.45Z"/><path class="cls-1" d="M157.74,173.64H154.1l3,1.81v.32l-3,1.81h3.61v.68h-5v-.58l3.51-2.08-3.51-2.06V173h5Z"/><path class="cls-1" d="M156.08,168.16v3.07a1.21,1.21,0,0,0,.8-.44,1.4,1.4,0,0,0,.31-.94,1.43,1.43,0,0,0-.46-1.09l.44-.37a1.71,1.71,0,0,1,.46.63,2.35,2.35,0,0,1,.16.86,2.27,2.27,0,0,1-.25,1.06,1.71,1.71,0,0,1-.69.72,2.11,2.11,0,0,1-2,0,1.85,1.85,0,0,1-.69-.67,2,2,0,0,1-.24-1,1.9,1.9,0,0,1,.24-1,1.78,1.78,0,0,1,.69-.67,2.09,2.09,0,0,1,1-.24Zm-1.28,2.68a1.25,1.25,0,0,0,.79.39V168.8a1.22,1.22,0,0,0-.78.39,1.13,1.13,0,0,0-.31.82A1.21,1.21,0,0,0,154.8,170.84Z"/><path class="cls-1" d="M154.34,161.33a1.65,1.65,0,0,1,1.23-.42h2.17v.69h-2.09a1.18,1.18,0,0,0-.83.25.92.92,0,0,0-.28.73,1.09,1.09,0,0,0,.32.82,1.3,1.3,0,0,0,.94.31h1.94v.69h-2.09a1.18,1.18,0,0,0-.83.25.91.91,0,0,0-.28.72,1.1,1.1,0,0,0,.32.83,1.3,1.3,0,0,0,.94.31h1.94v.68H154v-.65h.57a1.28,1.28,0,0,1-.45-.55,1.81,1.81,0,0,1-.15-.76,1.79,1.79,0,0,1,.17-.78,1.23,1.23,0,0,1,.53-.53,1.46,1.46,0,0,1-.52-.6,2,2,0,0,1-.18-.86A1.53,1.53,0,0,1,154.34,161.33Z"/><path class="cls-1" d="M154.17,156.66a1.71,1.71,0,0,1,.68-.68,2,2,0,0,1,1-.25,2.07,2.07,0,0,1,1,.25,1.71,1.71,0,0,1,.68.68,1.92,1.92,0,0,1,.25,1,1.81,1.81,0,0,1-.17.77,1.58,1.58,0,0,1-.48.58h.6v.65h-5.29V159h2.08a1.54,1.54,0,0,1-.45-.57,1.86,1.86,0,0,1-.15-.75A2,2,0,0,1,154.17,156.66Zm2.85.39a1.3,1.3,0,0,0-.47-.46,1.45,1.45,0,0,0-.7-.16,1.41,1.41,0,0,0-.69.16,1.22,1.22,0,0,0-.47.46,1.4,1.4,0,0,0,0,1.3,1.1,1.1,0,0,0,.47.46,1.41,1.41,0,0,0,.69.16,1.45,1.45,0,0,0,.7-.16,1.16,1.16,0,0,0,.47-.46,1.33,1.33,0,0,0,0-1.3Z"/><path class="cls-1" d="M156.08,151.38v3.07a1.17,1.17,0,0,0,.8-.44,1.39,1.39,0,0,0,.31-.93,1.41,1.41,0,0,0-.46-1.09l.44-.38a1.67,1.67,0,0,1,.46.64,2.38,2.38,0,0,1-.09,1.92,1.75,1.75,0,0,1-.69.71,2,2,0,0,1-1,.26,2.08,2.08,0,0,1-1-.25,1.8,1.8,0,0,1-.69-.68,2,2,0,0,1-.24-1,1.94,1.94,0,0,1,.24-1,1.82,1.82,0,0,1,.69-.66,2.09,2.09,0,0,1,1-.24Zm-1.28,2.68a1.25,1.25,0,0,0,.79.39V152a1.22,1.22,0,0,0-.78.39,1.16,1.16,0,0,0-.31.83A1.17,1.17,0,0,0,154.8,154.06Z"/><path class="cls-1" d="M154.1,149.23a1.8,1.8,0,0,1-.17-.84h.66a.62.62,0,0,0,0,.15,1.18,1.18,0,0,0,.33.88,1.34,1.34,0,0,0,1,.31h1.88v.69H154v-.66h.64A1.12,1.12,0,0,1,154.1,149.23Z"/><path class="cls-1" d="M157.54,145a1.86,1.86,0,0,1-.69.7,2,2,0,0,1-1,.25,1.92,1.92,0,0,1-1-.25,1.79,1.79,0,0,1-.69-.7,2.12,2.12,0,0,1-.24-1,2.07,2.07,0,0,1,.24-1,1.72,1.72,0,0,1,.69-.7,1.92,1.92,0,0,1,1-.26,2,2,0,0,1,1,.26,1.79,1.79,0,0,1,.69.7,2.07,2.07,0,0,1,.25,1A2.13,2.13,0,0,1,157.54,145ZM157,143.3a1.2,1.2,0,0,0-.47-.45,1.45,1.45,0,0,0-.7-.17,1.41,1.41,0,0,0-.69.17,1.14,1.14,0,0,0-.47.45,1.42,1.42,0,0,0,0,1.31,1.14,1.14,0,0,0,.47.45,1.31,1.31,0,0,0,.69.17,1.35,1.35,0,0,0,.7-.17,1.2,1.2,0,0,0,.47-.45,1.35,1.35,0,0,0,0-1.31Z"/><path class="cls-1" d="M153.63,140.27H154v-1.1h.57v1.09h3.21v.68h-3.21v.65H154v-.65h-.33a1.25,1.25,0,0,1-.9-.32,1.29,1.29,0,0,1-.32-.92,1.88,1.88,0,0,1,.05-.43,1.14,1.14,0,0,1,.17-.35l.52.21a.85.85,0,0,0-.18.53C153,140.07,153.19,140.27,153.63,140.27Z"/><path class="cls-1" d="M157.61,136.7a1.52,1.52,0,0,1-.53.62l-.49-.41a1.25,1.25,0,0,0,.6-1,.77.77,0,0,0-.26-.63,1.11,1.11,0,0,0-.76-.22h-2.8v1.8h-.62V134.3h3.39a1.71,1.71,0,0,1,1.24.4,1.51,1.51,0,0,1,.42,1.16A1.85,1.85,0,0,1,157.61,136.7Z"/><path class="cls-1" d="M156.49,129.77v2.65l1.25.55v.74l-5-2.26v-.71l5-2.27v.75Zm-.57.25-2.44,1.08,2.44,1.08Z"/><path class="cls-1" d="M152.75,118.75l5,1.67v.75l-4,1.37,4,1.36v.76l-5,1.67v-.73l4.06-1.35-4.06-1.41v-.65l4.08-1.38-4.08-1.38Z"/><path class="cls-1" d="M157.54,117.66a1.88,1.88,0,0,1-.69.71,2.06,2.06,0,0,1-1,.25,2,2,0,0,1-1-.25,1.81,1.81,0,0,1-.69-.71,2.12,2.12,0,0,1-.24-1,2.09,2.09,0,0,1,.24-1,1.79,1.79,0,0,1,.69-.7,1.92,1.92,0,0,1,1-.25,2,2,0,0,1,1,.25,1.86,1.86,0,0,1,.69.7,2.1,2.1,0,0,1,.25,1A2.13,2.13,0,0,1,157.54,117.66ZM157,116a1.16,1.16,0,0,0-.47-.46,1.45,1.45,0,0,0-.7-.16,1.41,1.41,0,0,0-.69.16,1.1,1.1,0,0,0-.47.46,1.4,1.4,0,0,0,0,1.3,1.16,1.16,0,0,0,.47.46,1.41,1.41,0,0,0,.69.17,1.45,1.45,0,0,0,.7-.17,1.22,1.22,0,0,0,.47-.46,1.33,1.33,0,0,0,0-1.3Z"/><path class="cls-1" d="M154.1,112.55a1.82,1.82,0,0,1-.17-.85h.66a.71.71,0,0,0,0,.16,1.18,1.18,0,0,0,.33.88,1.34,1.34,0,0,0,1,.31h1.88v.69H154v-.66h.64A1.12,1.12,0,0,1,154.1,112.55Z"/><path class="cls-1" d="M152.45,110.86v-.68h5.29v.68Z"/><path class="cls-1" d="M152.45,105.3h5.29V106h-.6a1.5,1.5,0,0,1,.48.58,1.77,1.77,0,0,1,.17.77,1.88,1.88,0,0,1-.25,1,1.8,1.8,0,0,1-.68.69,2.07,2.07,0,0,1-1,.24,2,2,0,0,1-1-.24,1.8,1.8,0,0,1-.68-.69,2,2,0,0,1-.24-1,1.86,1.86,0,0,1,.15-.75,1.4,1.4,0,0,1,.45-.57h-2.08Zm4.57,1.3a1.2,1.2,0,0,0-.47-.45,1.45,1.45,0,0,0-.7-.17,1.41,1.41,0,0,0-.69.17,1.14,1.14,0,0,0-.47.45,1.31,1.31,0,0,0-.16.65,1.34,1.34,0,0,0,.16.66,1.14,1.14,0,0,0,.47.45,1.41,1.41,0,0,0,.69.17,1.45,1.45,0,0,0,.7-.17,1.2,1.2,0,0,0,.47-.45,1.35,1.35,0,0,0,.17-.66A1.31,1.31,0,0,0,157,106.6Z"/><path class="cls-1" d="M154,98.28l3.78,1.42v.65l-2.87,1.09,2.87,1.11v.66l-3.78,1.4V104l3-1.1-3-1.14v-.58l3-1.12-3-1.12Z"/><path class="cls-1" d="M153.11,97.58a.42.42,0,0,1-.32.13.44.44,0,0,1-.32-.13.49.49,0,0,1-.13-.33.44.44,0,0,1,.13-.33.39.39,0,0,1,.31-.13.42.42,0,0,1,.32.13.44.44,0,0,1,.13.33A.48.48,0,0,1,153.11,97.58Zm.85,0v-.68h3.78v.68Z"/><path class="cls-1" d="M152.45,92h5.29v.66h-.6a1.43,1.43,0,0,1,.48.58,1.77,1.77,0,0,1,.17.77,1.91,1.91,0,0,1-.25,1,1.71,1.71,0,0,1-.68.68,2,2,0,0,1-1,.25,1.93,1.93,0,0,1-1-.25,1.71,1.71,0,0,1-.68-.68,2,2,0,0,1-.24-1,1.86,1.86,0,0,1,.15-.75,1.4,1.4,0,0,1,.45-.57h-2.08Zm4.57,1.3a1.13,1.13,0,0,0-.47-.45,1.45,1.45,0,0,0-.7-.17,1.41,1.41,0,0,0-.69.17,1.08,1.08,0,0,0-.47.45,1.31,1.31,0,0,0-.16.65,1.28,1.28,0,0,0,.16.65,1.1,1.1,0,0,0,.47.46,1.41,1.41,0,0,0,.69.17,1.45,1.45,0,0,0,.7-.17,1.16,1.16,0,0,0,.47-.46,1.29,1.29,0,0,0,.17-.65A1.31,1.31,0,0,0,157,93.33Z"/><path class="cls-1" d="M156.08,87.33V90.4a1.17,1.17,0,0,0,.8-.44,1.39,1.39,0,0,0,.31-.93,1.41,1.41,0,0,0-.46-1.09l.44-.38a1.67,1.67,0,0,1,.46.64,2.3,2.3,0,0,1,.16.85,2.24,2.24,0,0,1-.25,1.06,1.71,1.71,0,0,1-.69.72,2,2,0,0,1-1,.25,2.07,2.07,0,0,1-1-.24,1.88,1.88,0,0,1-.69-.68,2,2,0,0,1-.24-1,1.94,1.94,0,0,1,.24-1,1.82,1.82,0,0,1,.69-.66,2.09,2.09,0,0,1,1-.24ZM154.8,90a1.25,1.25,0,0,0,.79.39V88a1.22,1.22,0,0,0-.78.39,1.16,1.16,0,0,0-.31.83A1.18,1.18,0,0,0,154.8,90Z"/></g></g></svg>